<svg width="80" height="80" viewBox="0 0 80 80" fill="none" xmlns="http://www.w3.org/2000/svg">
<path d="M50 13.95V13.9297L64.9703 20.6344L80 15L40 0L0 15L40 30L54.9703 24.3844L40 18.2156V18.2L50 13.95Z" fill="#283A8E"/>
<path d="M0 20V65L37.5 79.0656V34.0656L0 20ZM20 65.1656L10 61.4156V56.0813L20 59.8313V65.1656Z" fill="#283A8E"/>
<path d="M65 25.625V38.15L55 41.9V29.375L42.5 34.0656V79.0656L80 65V20L65 25.625Z" fill="#283A8E"/>
<path d="M73.2308 50.1801C73.1408 53.8426 71.0639 57.2504 67.8094 59.0738C64.9386 60.6824 61.4951 60.8645 58.5467 59.6253L56.9886 64.8046C56.8719 65.1944 56.529 65.4835 56.1209 65.5371C55.7124 65.5901 55.3186 65.398 55.1231 65.0492L50.6147 57.0026C50.4192 56.6539 50.461 56.2177 50.7195 55.8969C50.8049 55.7907 50.9092 55.704 51.0242 55.6395C51.2562 55.5095 51.5339 55.469 51.7976 55.5383L57.0284 56.9138C57.511 53.7522 59.4647 50.9112 62.3355 49.3026C65.59 47.4792 69.5808 47.4872 72.7514 49.3228C73.0575 49.4997 73.2395 49.826 73.2308 50.1801Z" fill="white"/>
</svg>
