<svg width="948" height="307" viewBox="0 0 948 307" xmlns="http://www.w3.org/2000/svg"><path d="M733.387 73.7157C729.774 71.6706 729.745 71.5224 730.781 64.8533C718.655 64.8385 707.698 69.1067 696.668 74.5901C677.316 84.2084 678.634 95.1309 676.828 97.5318C671.942 96.9093 670.535 91.5889 673.422 84.2825C665.501 82.6523 664.095 79.1844 664.391 78.888C670.402 79.303 680.396 82.015 690.272 69.0474C696.357 61.0741 698.282 54.1531 718.714 42.1636C727.08 37.2581 735.726 36.2503 743.351 36.3837C747.127 33.5234 750.177 31.1818 753.257 28.8551C754.086 29.6109 754.397 29.7591 754.367 29.8925C753.375 34.7979 755.729 37.762 760.334 40.1925C766.049 43.2158 771.009 47.0542 776.102 50.7148C776.724 51.1594 776.665 53.1602 776.102 53.5307C762.303 62.7636 763.71 61.1482 751.391 63.801C744.106 65.372 735.149 65.209 733.387 73.7009V73.7157Z M496.653 216.345C501.095 211.543 500.118 208.535 495.143 205.823C477.953 196.442 461.844 196.427 445.202 209.424C429.908 221.369 413.369 231.699 396.89 241.895C386.585 248.268 375.999 250.313 364.124 243.511C358.291 240.176 349.615 241.984 342.226 241.465C341.93 242.577 341.634 243.688 341.338 244.8C345.972 247.971 350.621 251.158 356.781 255.367C350.384 257.827 345.173 259.828 339.591 261.976C352.901 271.787 365.294 270.646 372.505 263.622C380.411 255.915 406.603 272.173 438.021 262.955C483.95 253.648 492.197 221.177 496.653 216.36V216.345Z M308.557 283.006C314.006 280.813 318.922 277.671 324.844 274.603C328.827 272.543 328.412 269.861 324.844 265.933C312.54 252.373 300.014 246.4 285.623 250.269C272.401 253.825 258.395 255.678 244.447 257.442C235.727 258.553 227.272 256.211 218.803 246.593C214.643 241.866 207.699 240.057 202.013 236.93C201.658 237.671 207.447 247.482 211.77 253.01C206.529 252.551 202.25 252.166 197.675 251.765C206.929 264.244 216.686 267.934 223.082 265.192C230.145 262.154 244.403 273.521 250.37 276.352C264.406 283.021 279.982 286.637 295.528 285.896C300.518 285.659 304.678 284.577 308.557 283.006Z M406.721 199.939C371.246 208.802 388.421 206.193 395.38 194.337C403.79 180.021 411.948 185.845 415.279 178.272C423.852 158.754 435.993 142.481 454.012 132.774C453.02 126.327 452.146 120.74 450.962 113.019C454.293 115.049 455.507 115.42 456.188 116.25C473.171 136.79 498.652 107.195 520.772 140.318C523.023 143.682 523.067 145.786 520.772 148.839C504.19 171.01 486.807 155.82 476.635 175.501C474.74 174.063 475.081 176.079 475.525 163.185C459.15 162.592 444.121 165.897 430.574 176.064C415.857 187.135 414.88 202.355 417.426 219.042C409.697 216.138 407.847 212.61 406.677 199.924L406.721 199.939Z M490.272 278.857C447.482 281.406 467.411 281.91 480.826 271.002C497.186 257.693 502.842 265.415 510.275 258.168C529.212 239.687 556.988 227.549 581.255 220.91C577.361 215.856 576.221 206.549 581.181 197.701C583.772 200.399 586.807 214.522 590.923 216.76C602.28 222.925 633.579 212.892 642.966 238.694C643.722 242.577 642.715 244.741 638.747 247.453C609.697 267.267 598.77 248.209 577.879 266.704C576.547 264.881 575.91 267.015 582.81 253.825C565.427 250.18 547.571 250.802 527.909 258.76C506.529 267.415 497.912 282.888 492.389 300.509C485.504 296.093 485.238 292.136 490.287 278.871L490.272 278.857Z M86.4373 217.783C90.9531 209.928 94.8767 203.096 100.118 193.967C96.2389 191.344 92.493 188.809 90.4349 187.416C94.8471 184.452 104.812 185.608 110.63 192.129C115.205 197.272 132.958 188.528 151.747 201.48C167.204 212.151 179.005 226.364 185.282 244.755C186.674 248.801 184.883 251.513 181.196 251.914C167.959 253.336 150.607 250.372 144.166 233.299C136.23 212.27 119.78 190.084 105.552 207.364C100.562 213.426 94.5806 216.79 86.4225 217.753L86.4373 217.783Z M731.329 196.723C724.814 191.61 719.143 187.164 711.563 181.221C707.698 183.607 703.952 185.904 701.909 187.164C700.31 183.178 704.604 175.856 713.029 172.833C719.662 170.462 716.419 155.093 735.415 143.608C751.05 134.152 769.143 128.239 789.709 127.409C794.24 127.231 796.416 129.158 795.661 132.048C792.922 142.407 784.482 154.945 765.205 156.175C741.441 157.687 713.858 165.423 726.857 179.932C731.403 185.015 732.943 190.291 731.344 196.694L731.329 196.723Z M385.43 274.603C385.934 280.25 384.586 292.891 398.164 293.529C418.788 294.492 430.559 275.789 450.636 286.296C451.421 286.711 447.897 285.2 457.565 288.771C456.159 291.81 453.657 307.148 422.786 307C395.025 306.867 388.288 287.927 366.168 288.149C364.806 288.149 363.429 287.838 361.119 287.556C373.689 277.049 380.692 288.179 382.217 279.049C382.514 277.301 383.654 275.685 384.409 274.025C384.764 274.218 385.105 274.411 385.46 274.603H385.43Z M863.473 64.053C866.686 59.0586 871.216 46.4022 886.052 53.916C908.587 65.3423 912.362 89.9142 938.821 92.0335C939.872 92.1224 935.371 91.411 947.408 93.8415C947.334 90.1513 951.924 74.2789 918.773 55.976C888.969 39.5256 872.815 53.2491 849.229 39.822C847.778 38.9921 846.164 38.4734 843.544 37.3618C852.042 54.7311 864.79 48.4622 862.111 57.9471C861.592 59.7699 862.051 61.9485 862.081 63.9641C862.54 63.9937 863.014 64.0233 863.473 64.053Z M397.941 105.386C415.072 95.9015 431.744 105.594 444.98 88.8471C445.498 88.1802 443.041 90.8627 449.955 83.9713C447.675 82.1929 440.065 71.1963 413.962 84.3863C390.479 96.2424 391.56 113.967 372.727 123.141C371.572 123.704 370.521 124.534 368.655 125.735C383.076 128.654 385.016 116.961 389.576 123.482C390.45 124.727 391.989 125.512 393.233 126.505C393.455 126.209 386.63 111.626 397.927 105.372L397.941 105.386Z M622.978 171.351C629.138 176.108 640.583 189.417 653.982 175.723C674.311 154.93 666.567 124.979 695.987 113.745C697.142 113.3 692.315 115.612 704.989 108.795C706.706 113.123 719.825 130.151 690.657 162.489C664.435 191.566 639.058 180.866 618.507 204.37C617.234 205.823 615.634 206.964 613.177 209.128C614.42 186.038 632.188 189.12 624.429 178.939C622.934 176.983 622.401 174.285 621.424 171.914C621.942 171.722 622.46 171.544 622.993 171.351H622.978Z M573.112 122.326C571.039 114.575 563.103 98.3617 580.692 91.2925C607.402 80.5627 632.04 100.066 653.375 76.8724C654.219 75.9536 650.295 79.5845 661.296 70.396C657.965 67.0022 647.216 47.7063 606.588 62.0671C570.047 74.9755 570.387 103.282 541.116 113.123C539.309 113.73 537.666 114.782 534.749 116.22C556.44 124.445 560.245 106.409 566.701 117.895C567.944 120.088 570.224 121.703 572.031 123.586C572.401 123.171 572.771 122.756 573.126 122.341L573.112 122.326Z M8.02455 189.195C7.66921 182.837 7.37309 177.205 7.03255 171.07C4.08615 171.158 0.828823 170.684 0.0292969 166.831C7.10658 163.971 35.4897 146.853 64.628 166.045C70.3876 169.839 74.1335 175.575 76.8282 182.644C78.2496 186.349 77.0799 188.216 74.548 189.15C59.9789 194.515 56.9437 182.733 45.7207 174.33C30.4705 162.918 16.9526 156.323 14.7761 174.656C14.0802 180.48 12.8365 185.638 8.00975 189.195H8.02455Z M504.693 188.572C512.585 193.063 519.558 197.034 527.154 201.362C521.779 204.785 516.582 208.95 520.284 212.359C536.792 205.823 610.467 183.222 636.97 136.435C642.211 127.187 641.234 119.095 636.629 111.359C634.216 107.313 629.626 107.491 623.852 109.892C590.598 123.689 600.932 134.834 592.078 153.493C580.056 178.85 564.672 199.08 536.274 189.891C527.242 186.972 518.122 185.149 504.708 188.572H504.693Z M310.008 151.981C301.317 158.635 301.584 168.58 309.934 177.353C282.75 216.523 231.107 220.554 208.143 191.195C208.483 203.037 203.923 208.52 187.814 207.586C187.962 208.046 188.392 208.935 189.635 210.476C195.291 217.486 204.012 221.147 212.866 220.361C228.753 218.968 240.124 218.627 253.938 222.347C308.365 237.004 339.147 213.618 349.689 211.944C358.246 212.522 366.804 213.1 376.206 213.737C373.615 207.942 370.817 204.548 370.787 200.873C370.743 192.574 383.787 177.798 390.509 163.526C391.575 161.273 387.77 156.19 384.483 155.182C349.57 144.423 332.114 173.633 310.008 151.981Z M746.031 78.5471C763.117 96.8649 762.614 92.0631 749.066 115.568C749.733 116.457 765.753 109.921 769.247 103.475C776.695 89.7364 788.939 88.8768 801.954 89.7512C823.185 91.1739 840.849 106.854 867.263 93.0561C875.54 88.7286 875.554 84.0158 867.914 77.7617C850.606 63.5787 825.554 60.8074 807.062 70.5146C789.28 79.8513 770.624 86.2092 746.031 78.5619V78.5471Z M538.747 20.4817C547.171 27.2693 546.816 24.9129 541.145 38.7698C541.471 39.1254 541.812 39.4663 542.137 39.822C544.906 36.4875 548.741 33.5086 550.207 29.7294C553.301 21.7117 558.972 19.4887 565.042 18.0511C574.947 15.6947 583.579 21.0745 595.483 10.2706C599.215 6.87673 599.096 4.5055 595.38 2.4455C586.955 -2.22286 575.244 0.00016737 566.908 7.5881C558.898 14.8796 550.384 20.7929 538.762 20.4965L538.747 20.4817Z M890.123 109C887.251 119.567 889.235 118.322 874.562 118.322C874.37 118.767 874.192 119.226 873.999 119.671C878.071 120.99 882.246 123.465 886.214 123.376C894.654 123.198 898.829 127.688 902.486 132.861C908.438 141.293 906.913 151.504 921.26 158.559C925.761 160.767 927.864 159.73 928.278 155.432C929.241 145.68 922.711 135.499 912.643 130.564C902.96 125.821 894.343 120.086 890.123 109Z"/></svg>