<svg width="56" height="74" viewBox="0 0 56 74" fill="none" xmlns="http://www.w3.org/2000/svg">
<path d="M0 72.5558C0 73.1335 0.796748 73.4801 1.25203 73.1335L3.52846 71.0539L6.60163 73.8267C6.94309 74.0578 7.28455 74.0578 7.62602 73.8267L10.6992 71.0539L13.6585 73.8267C14 74.0578 14.3415 74.0578 14.5691 73.8267L17.6423 71.0539L20.6016 73.8267C20.9431 74.0578 21.2846 74.0578 21.626 73.8267L24.5854 71.0539L27.5447 73.8267C27.6585 73.9422 27.7724 73.9422 28 73.9422C28.2276 73.9422 28.3415 73.9422 28.4553 73.7112L31.4146 70.9383L34.374 73.7112C34.6016 73.9422 35.0569 73.9422 35.3984 73.7112L38.3577 70.9383L41.3171 73.7112C41.6585 73.9422 42 73.9422 42.3415 73.7112L45.3008 70.9383L48.374 73.7112C48.6016 73.9422 49.0569 73.9422 49.3984 73.7112L52.4715 70.9383L54.748 73.018C55.2033 73.4801 56 73.1335 56 72.4403V68.6276H0V72.5558Z" fill="#CDD1E5"/>
<path d="M54.748 0.808743L52.4715 2.88837L49.5122 0.115535C49.1707 0 48.8293 0 48.4878 0.231069L45.5285 3.0039L42.5691 0.231069C42.2276 0 41.8862 0 41.5447 0.231069L38.5854 3.0039L35.626 0.231069C35.1707 0 34.8293 0 34.4878 0.231069L31.5285 3.0039L28.4553 0.231069C28.3415 0 28.2276 0 28 0C27.7724 0 27.6585 0 27.5447 0.231069L24.4715 3.0039L21.5122 0.231069C21.1707 0 20.8293 0 20.4878 0.231069L17.5285 3.0039L14.5691 0.231069C14.2276 0 13.8862 0 13.5447 0.231069L10.5854 3.0039L7.5122 0.231069C7.17073 0 6.82927 0 6.4878 0.231069L3.52846 3.0039L1.25203 0.924278C0.796748 0.462139 0 0.808743 0 1.38642V5.19906H56V1.38642C56 0.808743 55.2033 0.462139 54.748 0.808743Z" fill="#CDD1E5"/>
<path d="M55.7724 6.93208H0.227642C2.39024 15.9438 3.07317 26.6885 3.07317 36.9711C3.18699 47.2537 2.39024 57.9984 0.227642 67.0101H55.7724C53.6098 57.9984 52.9268 47.2537 52.9268 36.9711C52.813 26.6885 53.6098 15.9438 55.7724 6.93208ZM28 53.897C18.8217 53.897 11.3537 46.3164 11.3537 37C11.3537 27.6836 18.8217 20.103 28 20.103C37.1783 20.103 44.6463 27.6836 44.6463 37C44.6463 46.3164 37.1783 53.897 28 53.897Z" fill="#CDD1E5"/>
<path d="M28 21.2584C19.4492 21.2584 12.4919 28.3205 12.4919 37C12.4919 45.6795 19.4492 52.7416 28 52.7416C36.5508 52.7416 43.5081 45.6795 43.5081 37C43.5081 28.3205 36.5508 21.2584 28 21.2584ZM37.5624 37.4304C36.0045 40.1931 33.1035 41.9102 29.9919 41.9102C27.2474 41.9102 24.6679 40.5744 23.0274 38.3619L19.7821 41.656C19.6185 41.8221 19.4008 41.9102 19.1789 41.9102C19.0693 41.9102 18.9583 41.8886 18.8516 41.8438C18.5329 41.7095 18.3252 41.3932 18.3252 41.0437V32.9563C18.3252 32.6053 18.5329 32.2891 18.8516 32.1562C19.1703 32.0219 19.5374 32.0955 19.7821 32.3439L23.0274 35.6381C24.6679 33.4271 27.2474 32.0898 29.9919 32.0898C33.1035 32.0898 36.003 33.8069 37.5624 36.5696C37.7132 36.8368 37.7132 37.1632 37.5624 37.4304Z" fill="#CDD1E5"/>
</svg>
