<svg width="203" height="203" viewBox="0 0 203 203" fill="none" xmlns="http://www.w3.org/2000/svg">
<path d="M101.15 202.3C157.013 202.3 202.3 157.013 202.3 101.15C202.3 45.2863 157.013 0 101.15 0C45.2863 0 0 45.2863 0 101.15C0 157.013 45.2863 202.3 101.15 202.3Z" fill="#03CAFF"/>
<path d="M41.362 102.96C41.3353 93.8382 46.2727 83.6249 51.8236 79.4632C51.9754 79.3483 51.8564 79.1103 51.6758 79.1636C45.7001 80.9469 14.5658 91.5152 14.4755 118.274C14.4755 118.274 22.8357 111.17 28.3312 112.74C33.2603 114.148 38.4131 123.329 39.0534 130.269C39.0534 130.269 41.4215 122.106 41.364 102.962L41.362 102.96Z" fill="#283A8E"/>
<path d="M160.938 94.9155C160.964 104.037 156.027 114.25 150.476 118.412C150.324 118.527 150.443 118.765 150.624 118.712C156.599 116.928 187.734 106.36 187.824 79.6007C187.824 79.6007 179.464 86.7051 173.968 85.1352C169.039 83.7275 163.886 74.5464 163.246 67.6062C163.246 67.6062 160.878 75.7695 160.935 94.9134L160.938 94.9155Z" fill="#283A8E"/>
<path d="M149.13 87.7906C145.799 77.7764 139.212 66.6315 133.671 60.9513C123.604 50.6272 87.4562 30.451 48.214 60.9185C35.5936 70.7152 27.0261 88.5417 27.0261 88.5417C27.0261 88.5417 41.2164 75.7202 58.0435 74.5362C69.878 73.7051 83.5634 75.595 95.8513 84.4519C97.3268 85.5149 98.7735 86.4937 100.196 87.4089C97.8049 89.4508 93.2903 89.2825 93.2903 89.2825C105.625 96.8363 108.591 90.0992 108.591 90.0992C108.591 90.0992 108.443 90.9303 107.784 91.7737C109.826 92.8059 111.808 93.6966 113.721 94.4476H113.725C113.731 94.4497 113.737 94.4517 113.743 94.4538L117.981 95.9395C130.616 99.8426 139.963 97.9239 145.358 95.8164C148.547 94.5707 150.215 91.037 149.134 87.7886L149.13 87.7906ZM113.754 94.2855H113.756L113.752 94.304C113.752 94.2978 113.752 94.2917 113.752 94.2855H113.754Z" fill="#283A8E"/>
<path d="M144.258 123.339C132.424 124.17 118.738 122.28 106.45 113.423C104.975 112.36 103.528 111.382 102.106 110.466C104.497 108.424 109.011 108.593 109.011 108.593C96.6763 101.039 93.711 107.776 93.711 107.776C93.711 107.776 93.8588 106.945 94.5175 106.101C92.4674 105.065 90.4789 104.17 88.5602 103.417L84.3227 101.932C71.6879 98.0285 62.3406 99.9472 56.9457 102.055C53.7567 103.3 52.0884 106.834 53.1698 110.083C56.5004 120.095 63.0876 131.24 68.6282 136.922C78.6958 147.246 114.843 167.422 154.086 136.955C166.706 127.158 175.274 109.331 175.274 109.331C175.274 109.331 161.083 122.153 144.256 123.337L144.258 123.339Z" fill="#283A8E"/>
</svg>
