<svg width="105" height="105" viewBox="0 0 105 105" fill="none" xmlns="http://www.w3.org/2000/svg">
<path d="M52.5 105C38.477 105 25.2931 99.5391 15.3767 89.6233C5.46087 79.7074 0 66.5235 0 52.5C0 38.4765 5.46087 25.2931 15.3767 15.3767C25.2931 5.46087 38.477 0 52.5 0C66.523 0 79.7069 5.46087 89.6233 15.3767C99.5391 25.2926 105 38.4765 105 52.5C105 66.5235 99.5391 79.7069 89.6233 89.6233C79.7074 99.5391 66.5235 105 52.5 105ZM52.5 2.92234C25.1629 2.92234 2.92234 25.1629 2.92234 52.5C2.92234 79.8371 25.1629 102.078 52.5 102.078C79.8371 102.078 102.078 79.8371 102.078 52.5C102.078 25.1629 79.8371 2.92234 52.5 2.92234Z" fill="white"/>
<path d="M19.4511 46.545L13.7875 45.5445C13.653 46.0389 13.3995 46.2295 13.2205 46.355L11.5762 45.7975C11.681 45.4709 11.8054 44.943 11.8673 44.5931C12.0743 43.421 12.0193 42.8455 12.248 41.5516C12.7081 38.9485 14.1062 37.6097 16.3747 38.0104C19.1759 38.5054 19.9991 40.4251 19.638 42.4649C19.5359 43.0435 19.3469 43.6693 19.0504 44.1039L22.1866 44.6582L21.8208 46.7287C21.3666 46.8997 20.8668 46.7954 19.4511 46.545ZM17.1323 43.7646C17.4336 43.394 17.5998 42.9837 17.6887 42.4813C17.9095 41.2329 17.2673 40.6013 16.1254 40.3996C14.9988 40.2006 14.3344 40.8523 14.138 41.9635C14.0517 42.4506 14.0295 42.9334 14.0723 43.2235L17.1323 43.7646Z" fill="white"/>
<path d="M19.2721 35.3161C16.2492 33.5638 15.6234 30.7891 17.1894 28.087C18.7554 25.3849 21.1256 24.811 23.9876 26.4697C27.2111 28.338 27.776 30.9707 26.1481 33.7798C24.6986 36.2807 22.3887 37.1225 19.2721 35.3161ZM22.8986 28.7514C21.026 27.6661 19.6157 27.8493 18.8248 29.2136C18.0338 30.5779 18.524 31.9522 20.3436 33.0063C22.0827 34.0143 23.6445 34.1863 24.5747 32.5817C25.3884 31.1772 24.9585 29.9452 22.8986 28.7514Z" fill="white"/>
<path d="M28.5646 25.8588L24.8582 21.4404C24.4574 21.7564 24.0101 21.7284 23.9032 21.6971L23.0254 20.1936C23.2721 20.0067 23.7523 19.6647 24.2377 19.2571C24.8894 18.7107 25.3802 18.1173 26.2214 17.4115C27.9981 15.9213 29.8421 15.5448 31.3625 17.357C32.3165 18.4942 32.4674 19.9014 31.6479 21.1137C32.9476 21.4361 34.1197 21.4621 34.8879 20.8379L36.0902 22.271C36.0378 22.6178 35.7402 23.0085 35.349 23.3367C34.1171 24.3701 32.2848 23.99 30.632 22.8136C30.3122 23.0821 30.0395 23.3108 29.7214 23.4362L31.9571 26.1013L30.2751 27.5122C29.9146 27.3708 29.489 26.9605 28.5646 25.8588ZM28.392 22.0682C28.6864 21.9624 29.0305 21.7951 29.5043 21.3975C30.2031 20.8114 30.5589 20.0083 29.7642 19.0607C29.1385 18.3147 28.2771 18.2501 27.4714 18.9257C27.1161 19.2237 26.7212 19.5954 26.5539 19.877L28.392 22.0682Z" fill="white"/>
<path d="M40.1321 20.7923C39.9018 20.6351 39.617 20.1332 39.1093 18.8706L36.934 13.4626C36.647 13.578 36.1679 13.8375 35.594 14.0683C34.6617 14.4436 34.2223 14.4701 33.9089 14.3129L33.3027 12.5568L39.7007 9.98335C40.7049 9.57941 41.0665 9.48411 41.4313 9.60376L42.1407 11.3683L39.0421 12.6145C39.1511 12.6373 39.6519 13.3859 40.0273 14.3182L42.2831 19.9273L40.1321 20.7923Z" fill="white"/>
<path d="M45.8648 13.5388C45.7012 10.0484 47.6955 8.0197 50.8153 7.87358C53.9352 7.72693 55.7013 9.40887 55.8564 12.714C56.0311 16.4357 54.1236 18.3363 50.8799 18.4888C47.992 18.6243 46.0337 17.1377 45.8648 13.5388ZM53.348 13.0332C53.2469 10.8711 52.3289 9.78422 50.7534 9.85834C49.1784 9.93246 48.2879 11.0882 48.3869 13.1889C48.4812 15.1969 49.1816 16.6035 51.035 16.5162C52.6566 16.44 53.4597 15.4118 53.348 13.0332Z" fill="white"/>
<path d="M62.8257 17.7991L65.4924 12.1164C65.3245 12.0375 64.9174 11.8125 64.8581 11.3573L65.8174 9.89502C66.2251 10.1544 66.5962 10.3461 67.0441 10.5563C67.8699 10.9438 68.7609 11.1915 69.8113 11.6839C71.7008 12.5707 72.9216 13.8264 72.0417 15.7021C71.4964 16.8636 70.7923 17.1993 69.8298 17.1405C71.0279 17.7541 71.4493 18.8569 70.8844 20.0608C69.7943 22.3838 67.4406 22.3044 65.3272 21.3128C64.1376 20.7543 62.6436 19.9342 62.1465 18.8468C62.1735 18.8256 62.4779 18.5408 62.8257 17.7991ZM65.9556 16.5524C65.6205 17.266 65.2716 17.9733 64.9434 18.6732C65.0958 18.967 65.6178 19.3826 66.1917 19.652C67.1012 20.0788 68.0986 20.137 68.5587 19.1576C69.0643 18.0797 68.2665 17.7054 67.1182 17.1326C66.7825 16.9748 66.2785 16.7376 65.9556 16.5524ZM66.6385 15.0965C66.9212 15.3315 67.4464 15.5952 67.9223 15.8186C68.7901 16.2257 69.4333 15.9467 69.7552 15.2611C70.1692 14.3797 69.7255 13.7957 68.6895 13.3097C68.2696 13.1128 68.0044 13.0228 67.6508 12.9757L66.6385 15.0965Z" fill="white"/>
<path d="M72.4267 22.868L76.6181 18.4268C76.3015 18.0642 76.2692 17.7153 76.2544 17.5734L77.6213 16.4399L83.1536 21.6605L81.8804 23.0099C81.4722 22.9014 80.7448 22.3212 80.2276 21.833C79.5192 21.1644 78.6388 20.2273 78.3122 19.898L76.8055 21.4947C77.1374 21.6382 77.6626 22.0056 78.1682 22.4832C78.7977 23.0777 79.3954 23.6833 79.4668 23.9004L78.4271 25.0026C77.9469 25.0386 77.2401 24.4356 76.6895 23.9157C76.2512 23.5023 75.8213 23.0115 75.5847 22.7886L74.0886 24.3742C74.0886 24.3742 75.654 25.5537 76.7557 26.5935C77.453 27.2516 77.5964 27.6846 77.6562 27.8471L76.3407 29.2416L71.3145 24.4986C71.3573 24.0926 71.7369 23.6007 72.4262 22.8696L72.4267 22.868Z" fill="white"/>
<path d="M78.9711 30.044L86.3442 25.8384L87.4395 27.7591C87.3035 28.0503 86.9864 28.3377 86.0599 28.8666L80.5403 32.0155C80.5403 32.0155 81.3259 33.0807 81.9157 34.1146C82.299 34.7865 82.6473 35.4599 82.6028 35.912L80.9108 36.8771L77.6777 31.2098C77.8699 30.7974 78.4067 30.3659 78.9711 30.044Z" fill="white"/>
<path d="M86.28 36.8399C89.7021 36.1353 92.0161 37.7892 92.6461 40.8481C93.2761 43.9065 91.8896 45.913 88.6491 46.5806C84.9998 47.3323 82.8255 45.7436 82.1707 42.5639C81.5873 39.7321 82.752 37.5668 86.28 36.8399ZM87.9444 44.1527C90.0642 43.7159 90.9949 42.6402 90.6767 41.0959C90.3585 39.5516 89.0779 38.8522 87.0185 39.2763C85.0501 39.6818 83.7695 40.5929 84.1438 42.4099C84.471 43.9997 85.6124 44.6334 87.9444 44.1527Z" fill="white"/>
<path d="M12.4961 66.4061L21.0508 63.1206L21.5321 64.3737L12.9773 67.6592L12.4961 66.4061ZM15.5725 66.4967L16.7171 66.0572L17.2587 67.4671C17.5117 68.1256 17.8664 68.5608 18.3233 68.7726C18.7802 68.9843 19.3239 68.969 19.9544 68.7271C20.5087 68.5142 20.8634 68.1844 21.0191 67.7376C21.1747 67.2908 21.126 66.7381 20.8729 66.0789L20.3409 64.6935L21.4855 64.2535L22.0175 65.639C22.4294 66.7116 22.5025 67.6153 22.2367 68.3512C21.9709 69.0871 21.3722 69.6339 20.4404 69.9918C19.4324 70.3788 18.5621 70.3963 17.8299 70.0437C17.0977 69.6911 16.5254 68.9785 16.1141 67.9065L15.5725 66.4967Z" fill="#03CAFF"/>
<path d="M18.9668 79.1587L25.9243 73.1938L26.7978 74.213L19.8403 80.1773L18.9668 79.1587ZM18.9668 79.1587L19.8975 78.3604L23.8458 82.9657L22.9151 83.7635L18.9668 79.1587ZM21.985 76.571L22.9162 75.7731L26.1085 79.4965L25.1773 80.2943L21.985 76.571ZM24.9931 73.9922L25.9243 73.1938L29.8726 77.7997L28.9414 78.5975L24.9931 73.9922Z" fill="#03CAFF"/>
<path d="M31.4976 90.3546C31.045 90.0973 30.6421 89.8199 30.289 89.5224C29.9358 89.2254 29.6325 88.9077 29.3789 88.5705L30.1693 87.5201C30.4806 87.9299 30.802 88.2899 31.1334 88.5991C31.4648 88.9088 31.8115 89.1666 32.1742 89.3731C32.6978 89.6711 33.1388 89.8003 33.4972 89.7617C33.8556 89.723 34.1415 89.5166 34.3543 89.1428C34.6243 88.6679 34.5788 88.1819 34.2182 87.6848L33.1954 86.2713C32.7936 85.7159 32.5464 85.1823 32.4548 84.6698C32.3627 84.1573 32.4638 83.6428 32.7571 83.1266C33.1525 82.4309 33.6682 82.0116 34.304 81.8682C34.9398 81.7247 35.6413 81.8713 36.4079 82.307C36.9426 82.6115 37.3709 82.9588 37.6933 83.35C38.0152 83.7412 38.2661 84.223 38.4456 84.7948L37.2073 85.1447C37.031 84.6883 36.8346 84.3183 36.6181 84.0335C36.401 83.7492 36.1374 83.5189 35.8271 83.342C35.4417 83.1229 35.0907 83.0461 34.7747 83.1107C34.4581 83.1758 34.1965 83.3897 33.9901 83.7523C33.8434 84.0102 33.7926 84.26 33.8387 84.5015C33.8842 84.7429 34.0059 85.0039 34.2029 85.2839L35.0568 86.4973C35.4904 87.1104 35.7615 87.6779 35.8705 88.1999C35.9791 88.7219 35.8785 89.2561 35.5677 89.8024C35.1569 90.524 34.6148 90.9317 33.9403 91.0259C33.2658 91.1201 32.4516 90.8957 31.4981 90.353L31.4976 90.3546Z" fill="#03CAFF"/>
<path d="M46.1773 95.5312C43.3725 95.0352 42.2443 93.2368 42.7928 90.136C43.0527 88.6658 43.6075 87.5895 44.4578 86.9077C45.308 86.2258 46.3769 85.9987 47.6649 86.2258C48.2875 86.3359 48.8127 86.5302 49.2394 86.8087C49.6661 87.0871 49.9536 87.4275 50.1007 87.8294L48.9948 88.5975C48.855 88.2757 48.6517 88.0104 48.3849 87.8018C48.1181 87.5933 47.8132 87.4583 47.4701 87.3974C46.6522 87.2528 45.9449 87.4313 45.3472 87.9331C44.7495 88.435 44.3545 89.2281 44.1629 90.3123C43.7446 92.6761 44.5573 94.0388 46.5992 94.3999C47.2133 94.5084 47.8418 94.4883 48.4839 94.3401L48.5787 95.5106C47.7904 95.6683 46.9899 95.6752 46.1762 95.5318L46.1773 95.5312Z" fill="#03CAFF"/>
<path d="M56.0117 95.8836L57.0711 86.4039L58.9155 86.0879L63.0719 94.6728L61.7362 94.902L58.2384 87.3304L58.1241 87.35L57.3479 95.6543L56.0117 95.8836ZM56.8429 93.4758L56.6359 92.2672L61.2158 91.482L61.4228 92.6907L56.8429 93.4758Z" fill="#03CAFF"/>
<path d="M70.3923 91.9561L65.9023 83.9678L67.0723 83.3103L71.5623 91.2991L70.3923 91.9561ZM71.4839 91.3425L70.883 90.2736L71.7269 89.7993C72.5486 89.3376 73.0346 88.7558 73.1854 88.0543C73.3363 87.3529 73.1484 86.5328 72.6211 85.5952C72.0498 84.5788 71.4151 83.935 70.7173 83.6634C70.0196 83.3918 69.2599 83.4871 68.4382 83.9488L67.6171 84.4104L66.8812 83.4172L67.8373 82.8799C70.2753 81.5098 72.2637 82.1932 73.8022 84.9313C75.2565 87.5191 74.7652 89.498 72.3273 90.8681L71.4839 91.3425Z" fill="#03CAFF"/>
<path d="M84.1488 81.5569C82.6723 83.2611 80.7638 83.0986 78.4227 81.0704C76.0166 78.9856 75.5512 77.0914 77.0272 75.3872C78.5032 73.6836 80.4446 73.8736 82.8507 75.9584C85.1918 77.9866 85.6254 79.8528 84.1488 81.5569ZM83.251 80.7792C84.1245 79.7712 83.6893 78.5123 81.9465 77.0024C80.1386 75.4364 78.7976 75.1569 77.9246 76.1649C77.051 77.1729 77.5185 78.4604 79.3264 80.0264C81.0693 81.5363 82.3774 81.7872 83.251 80.7792Z" fill="#03CAFF"/>
<path d="M91.4204 69.5831C91.2319 70.0686 91.0165 70.5075 90.774 70.9003C90.5315 71.2931 90.2621 71.6399 89.9656 71.9396L88.8109 71.3111C89.1709 70.9432 89.4796 70.5726 89.7374 70.1999C89.9952 69.8272 90.1996 69.446 90.351 69.0569C90.5691 68.4957 90.6326 68.0404 90.5421 67.691C90.4516 67.3422 90.2059 67.0896 89.8046 66.934C89.2954 66.736 88.821 66.8519 88.3821 67.2813L87.1338 68.4994C86.6435 68.9786 86.1512 69.3004 85.6572 69.4667C85.1638 69.6324 84.6402 69.608 84.0865 69.3936C83.3405 69.104 82.8503 68.6551 82.6158 68.0468C82.3813 67.439 82.4236 66.7238 82.7428 65.9016C82.9657 65.3283 83.2468 64.8534 83.5867 64.4781C83.9266 64.1022 84.366 63.784 84.906 63.5225L85.4333 64.6967C85.0077 64.937 84.6699 65.1859 84.4205 65.4421C84.1712 65.6983 83.9817 65.9927 83.8525 66.3257C83.6921 66.7386 83.6672 67.097 83.7778 67.4009C83.8885 67.7048 84.1384 67.9319 84.527 68.0833C84.8038 68.1908 85.058 68.204 85.2904 68.1236C85.5228 68.0431 85.7626 67.8848 86.0114 67.6487L87.0872 66.6264C87.6298 66.1081 88.1518 65.7571 88.6526 65.5729C89.1535 65.3892 89.6966 65.4103 90.2822 65.638C91.0562 65.9387 91.539 66.4157 91.7306 67.0695C91.9223 67.7233 91.8196 68.5614 91.422 69.5842L91.4204 69.5831Z" fill="#03CAFF"/>
<path d="M104.201 53.8325H0.800781V56.1545H104.201V53.8325Z" fill="white"/>
<path d="M52.4623 78.6156C66.8743 78.6156 78.5575 66.9324 78.5575 52.5204C78.5575 38.1085 66.8743 26.4253 52.4623 26.4253C38.0504 26.4253 26.3672 38.1085 26.3672 52.5204C26.3672 66.9324 38.0504 78.6156 52.4623 78.6156Z" fill="#03CAFF"/>
<path d="M37.0379 52.9872C37.031 50.634 38.3048 47.9991 39.7368 46.9255C39.776 46.8958 39.7453 46.8344 39.6987 46.8482C38.1571 47.3082 30.1249 50.0347 30.1016 56.9382C30.1016 56.9382 32.2584 55.1054 33.6761 55.5104C34.9478 55.8736 36.2771 58.2421 36.4423 60.0326C36.4423 60.0326 37.0527 57.9261 37.0379 52.9872Z" fill="#283A8E"/>
<path d="M67.8868 50.9121C67.8937 53.2653 66.6199 55.9002 65.1878 56.9738C65.1487 57.0035 65.1794 57.0649 65.226 57.0511C66.7676 56.5911 74.7998 53.8646 74.8231 46.9611C74.8231 46.9611 72.6663 48.7939 71.2485 48.3889C69.9769 48.0257 68.6475 45.6572 68.4824 43.8667C68.4824 43.8667 67.8719 45.9732 67.8868 50.9121Z" fill="#283A8E"/>
<path d="M64.8408 49.0738C63.9816 46.4902 62.2822 43.615 60.8527 42.1496C58.2555 39.4861 48.9299 34.281 38.806 42.1411C35.5501 44.6685 33.3398 49.2675 33.3398 49.2675C33.3398 49.2675 37.0007 45.9598 41.3419 45.6543C44.395 45.4399 47.9256 45.9275 51.0957 48.2124C51.4764 48.4866 51.8496 48.7392 52.2165 48.9753C51.5997 49.5021 50.435 49.4586 50.435 49.4586C53.6173 51.4074 54.3823 49.6693 54.3823 49.6693C54.3823 49.6693 54.3442 49.8838 54.1742 50.1013C54.701 50.3676 55.2124 50.5974 55.7058 50.7912H55.7069L55.7116 50.7928L56.8049 51.176C60.0645 52.183 62.4759 51.688 63.8677 51.1443C64.6904 50.8229 65.1209 49.9113 64.8419 49.0732L64.8408 49.0738ZM55.7143 50.7493L55.7138 50.7541L55.7143 50.7493Z" fill="#283A8E"/>
<path d="M63.5843 58.245C60.5312 58.4594 57.0006 57.9718 53.8305 55.6869C53.4498 55.4127 53.0766 55.1601 52.7097 54.924C53.3265 54.3973 54.4912 54.4407 54.4912 54.4407C51.3089 52.4919 50.5439 54.23 50.5439 54.23C50.5439 54.23 50.582 54.0156 50.752 53.798C50.2231 53.5306 49.7101 53.2998 49.2151 53.1055L48.1219 52.7222C44.8623 51.7153 42.4508 52.2103 41.059 52.754C40.2363 53.0753 39.8059 53.987 40.0849 54.825C40.9441 57.408 42.6435 60.2832 44.0729 61.7492C46.6702 64.4126 55.9958 69.6178 66.1197 61.7577C69.3755 59.2303 71.5858 54.6313 71.5858 54.6313C71.5858 54.6313 67.9255 57.9395 63.5843 58.245Z" fill="#283A8E"/>
</svg>
