<svg width="362" height="241" viewBox="0 0 362 241" fill="none" xmlns="http://www.w3.org/2000/svg">
<path d="M87.8241 240.691V218.781H91.0349V240.691H87.8241ZM90.6649 233.902V230.972H94.2774C95.9649 230.972 97.242 230.553 98.1059 229.714C98.9698 228.875 99.4032 227.649 99.4032 226.034C99.4032 224.613 98.9713 223.539 98.1059 222.809C97.242 222.078 95.9649 221.714 94.2774 221.714H90.7268V218.782H94.2774C97.0261 218.782 99.108 219.393 100.523 220.618C101.939 221.842 102.647 223.648 102.647 226.034C102.647 228.616 101.939 230.573 100.523 231.904C99.108 233.236 97.0261 233.902 94.2774 233.902H90.6649Z" fill="#03CAFF"/>
<path d="M112.677 240.691V218.781H115.888V240.691H112.677ZM112.677 221.713V218.781H127.191V221.713H112.677ZM112.677 231.187V228.255H124.412V231.187H112.677ZM112.677 240.691V237.758H127.191V240.691H112.677Z" fill="#03CAFF"/>
<path d="M143.566 241C142.32 241 141.154 240.899 140.068 240.699C138.983 240.499 137.976 240.197 137.051 239.797L137.452 236.681C138.584 237.164 139.678 237.532 140.734 237.784C141.789 238.036 142.816 238.163 143.813 238.163C145.255 238.163 146.324 237.911 147.026 237.407C147.725 236.904 148.075 236.137 148.075 235.108C148.075 233.802 147.406 232.845 146.068 232.238L142.27 230.51C140.777 229.831 139.632 229.013 138.834 228.057C138.037 227.1 137.638 225.911 137.638 224.493C137.638 222.579 138.214 221.098 139.367 220.05C140.521 219.001 142.152 218.475 144.261 218.475C145.733 218.475 147.036 218.691 148.167 219.123C149.299 219.555 150.391 220.26 151.44 221.237L149.279 223.428C148.373 222.687 147.527 222.15 146.739 221.815C145.952 221.481 145.131 221.313 144.277 221.313C143.217 221.313 142.395 221.567 141.815 222.077C141.233 222.586 140.942 223.34 140.942 224.337C140.942 225.047 141.132 225.625 141.514 226.072C141.894 226.52 142.456 226.918 143.197 227.268L146.408 228.78C148.034 229.541 149.269 230.4 150.114 231.357C150.958 232.314 151.38 233.543 151.38 235.045C151.38 237.03 150.733 238.519 149.442 239.511C148.15 240.504 146.192 241 143.567 241H143.566Z" fill="#03CAFF"/>
<path d="M171.461 241C164.646 241 161.24 237.235 161.24 229.705C161.24 226.136 162.099 223.372 163.818 221.412C165.538 219.452 167.961 218.473 171.091 218.473C172.604 218.473 173.922 218.711 175.043 219.191C176.165 219.668 176.983 220.35 177.498 221.235L175.213 223.503C174.75 222.803 174.161 222.264 173.445 221.883C172.73 221.503 171.955 221.311 171.121 221.311C169.134 221.311 167.542 222.026 166.343 223.457C165.143 224.887 164.544 226.918 164.544 229.551C164.544 235.291 167.025 238.161 171.987 238.161C173.48 238.161 174.951 237.853 176.403 237.236L177.112 239.951C175.321 240.65 173.438 241 171.461 241Z" fill="#03CAFF"/>
<path d="M185.459 240.691L191.79 218.781H196.268L202.599 240.691H199.356L194.169 221.435H193.891L188.703 240.691H185.459ZM188.392 235.353V232.422H199.509V235.353H188.392Z" fill="#03CAFF"/>
<path d="M211.778 240.691V218.781H214.99V240.691H211.778ZM214.773 240.691V237.758H217.089C219.344 237.758 221.039 237.115 222.176 235.83C223.314 234.544 223.883 232.616 223.883 230.045C223.883 227.258 223.314 225.172 222.176 223.789C221.039 222.406 219.343 221.714 217.089 221.714H214.835L214.465 218.782H217.089C223.78 218.782 227.125 222.537 227.125 230.045C227.125 237.143 223.78 240.691 217.089 240.691H214.773Z" fill="#03CAFF"/>
<path d="M243.734 241C238.34 241 235.643 237.297 235.643 229.891C235.643 222.485 238.34 218.474 243.734 218.474C249.127 218.474 251.824 222.28 251.824 229.891C251.824 237.502 249.127 241 243.734 241ZM243.734 238.161C246.924 238.161 248.52 235.404 248.52 229.891C248.52 224.377 246.924 221.313 243.734 221.313C240.543 221.313 238.948 224.173 238.948 229.891C238.948 235.609 240.543 238.161 243.734 238.161Z" fill="#03CAFF"/>
<path d="M267.829 241C266.584 241 265.417 240.899 264.332 240.699C263.246 240.499 262.24 240.197 261.314 239.797L261.716 236.681C262.847 237.164 263.942 237.532 264.997 237.784C266.052 238.036 267.079 238.163 268.077 238.163C269.518 238.163 270.588 237.911 271.289 237.407C271.989 236.904 272.339 236.137 272.339 235.108C272.339 233.802 271.669 232.845 270.332 232.238L266.533 230.51C265.04 229.831 263.896 229.013 263.098 228.057C262.3 227.1 261.901 225.911 261.901 224.493C261.901 222.579 262.477 221.098 263.631 220.05C264.784 219.001 266.415 218.475 268.525 218.475C269.996 218.475 271.299 218.691 272.431 219.123C273.563 219.555 274.654 220.26 275.704 221.237L273.542 223.428C272.637 222.687 271.79 222.15 271.003 221.815C270.215 221.481 269.394 221.313 268.54 221.313C267.481 221.313 266.659 221.567 266.078 222.077C265.497 222.586 265.206 223.34 265.206 224.337C265.206 225.047 265.396 225.625 265.777 226.072C266.157 226.52 266.719 226.918 267.461 227.268L270.671 228.78C272.297 229.541 273.532 230.4 274.378 231.357C275.221 232.314 275.643 233.543 275.643 235.045C275.643 237.03 274.997 238.519 273.705 239.511C272.414 240.504 270.455 241 267.831 241H267.829Z" fill="#03CAFF"/>
<path d="M3.87891 195.276V170.415C1.67165 170.215 0.669523 169.278 0 168.611L1.13747 161.192C2.60898 161.392 4.95015 161.526 6.48789 161.526C11.6382 161.526 14.0456 160.857 19.73 160.857C31.1666 160.857 37.9209 165.802 37.9209 175.76C37.9209 188.056 30.3632 193.001 21.4017 193.001C18.8604 193.001 16.0513 192.668 13.9779 191.731V205.497H4.88247C3.81268 203.693 3.87891 201.488 3.87891 195.272V195.276ZM13.9779 183.314C15.7835 184.317 17.6567 184.717 19.8639 184.717C25.3483 184.717 27.5541 181.51 27.5541 176.497C27.5541 171.484 24.277 169.212 19.3946 169.212C17.255 169.212 15.1816 169.48 13.9779 169.881V183.314Z" fill="white"/>
<path d="M39.3218 184.183C39.3218 169.08 48.351 160.726 61.8596 160.726C75.3681 160.726 82.658 168.345 82.658 182.646C82.658 198.752 74.0305 206.571 59.9863 206.571C47.4799 206.571 39.3218 199.754 39.3218 184.183ZM71.7584 183.514C71.7584 174.157 68.0134 169.28 61.1915 169.28C54.3695 169.28 50.2905 174.091 50.2905 183.18C50.2905 192.269 53.0319 198.083 61.0576 198.083C68.0796 198.083 71.7584 193.806 71.7584 183.514Z" fill="white"/>
<path d="M86.8047 195.276V170.349C84.5974 170.283 83.1936 168.946 82.9258 168.545L84.1971 161.126C85.5347 161.192 88.076 161.394 90.8175 161.394C94.4963 161.394 97.7733 160.792 102.52 160.792C112.552 160.792 119.708 164.668 119.708 174.893C119.708 181.308 116.297 186.387 110.211 188.125C113.622 192.803 117.433 196.145 121.713 196.211V204.298C120.576 205.3 118.504 205.768 116.297 205.768C109.341 205.768 104.326 199.42 102.119 190.932C100.313 190.932 98.7754 190.932 97.3702 190.465V205.502H87.873C87.071 204.031 86.8032 201.492 86.8032 195.276H86.8047ZM96.7698 182.245C98.0411 182.713 99.6451 183.114 102.32 183.114C106.265 183.114 109.676 181.444 109.676 176.097C109.676 171.887 107.001 169.28 102.454 169.28C100.449 169.28 98.1074 169.414 96.7698 169.881V182.245Z" fill="white"/>
<path d="M134.755 205.5C134.087 204.498 133.752 202.026 133.752 196.144V170.949C132.414 170.949 130.073 171.216 127.399 171.216C123.052 171.216 121.247 170.615 120.243 169.478L120.645 161.458H150.473C155.154 161.458 156.759 161.658 158.03 162.729V170.949H143.584C143.986 171.216 144.788 175.025 144.788 179.369V205.499H134.757L134.755 205.5Z" fill="white"/>
<path d="M157.359 184.183C157.359 169.08 166.389 160.726 179.897 160.726C193.406 160.726 200.695 168.345 200.695 182.646C200.695 198.752 192.068 206.571 178.024 206.571C165.517 206.571 157.359 199.754 157.359 184.183ZM189.794 183.514C189.794 174.157 186.049 169.28 179.228 169.28C172.406 169.28 168.327 174.091 168.327 183.18C168.327 192.269 171.068 198.083 179.094 198.083C186.116 198.083 189.794 193.806 189.794 183.514Z" fill="white"/>
<path d="M215.206 197.482V170.349C214.404 170.349 212.397 170.215 211.327 168.545L212.397 161.06C214.47 161.328 216.276 161.394 218.416 161.394C222.361 161.394 226.307 160.726 231.322 160.726C240.35 160.726 247.44 163.399 247.44 172.355C247.44 177.901 245.3 180.508 241.421 182.045C247.24 182.245 250.918 185.787 250.918 191.535C250.918 202.628 241.555 206.638 231.458 206.638C225.773 206.638 218.417 206.171 214.47 202.828C214.537 202.695 215.206 201.024 215.206 197.482ZM225.171 186.856C225.171 190.265 225.105 193.673 225.105 197.014C226.242 197.883 229.05 198.551 231.793 198.551C236.14 198.551 240.153 196.947 240.153 192.269C240.153 187.124 236.341 187.124 230.789 186.99C229.184 186.99 226.777 186.99 225.171 186.856ZM225.171 179.905C226.709 180.307 229.25 180.373 231.525 180.373C235.672 180.373 237.678 178.101 237.678 174.826C237.678 170.616 234.868 169.146 229.92 169.146C227.914 169.146 226.71 169.28 225.239 169.747L225.173 179.905H225.171Z" fill="white"/>
<path d="M254.597 197.08V170.683C252.524 170.483 251.388 169.48 250.918 169.078L251.854 161.46H284.757V169.48C283.152 170.349 279.139 170.683 276.064 170.683C271.851 170.683 266.3 170.349 264.293 170.281V179.772C265.764 179.236 268.506 178.836 271.515 178.836C275.26 178.836 278.939 178.97 279.809 179.438V185.987C278.405 187.524 274.392 187.725 271.115 187.725C268.506 187.725 265.698 187.458 264.293 187.458V196.88C264.293 196.88 272.719 195.945 279.273 195.945C283.42 195.945 285.158 196.88 285.827 197.214V205.502H255.933C254.863 204.099 254.596 201.426 254.596 197.082L254.597 197.08Z" fill="white"/>
<path d="M289.17 198.149V161.46H298.734C299.536 162.597 299.937 164.401 299.937 169.012V196.479C299.937 196.479 305.622 195.81 310.772 195.81C314.115 195.81 317.393 195.944 318.998 197.08V205.5H290.776C289.638 203.896 289.17 200.957 289.17 198.149Z" fill="white"/>
<path d="M318.664 184.183C318.664 169.08 327.693 160.726 341.202 160.726C354.71 160.726 362 168.345 362 182.646C362 198.752 353.373 206.571 339.328 206.571C326.822 206.571 318.664 199.754 318.664 184.183ZM351.099 183.514C351.099 174.157 347.354 169.28 340.532 169.28C333.71 169.28 329.631 174.091 329.631 183.18C329.631 192.269 332.373 198.083 340.398 198.083C347.42 198.083 351.099 193.806 351.099 183.514Z" fill="white"/>
</svg>
