<svg width="425" height="116" viewBox="0 0 425 116" fill="none" xmlns="http://www.w3.org/2000/svg">
<path d="M133.632 90.5721V72.6537H136.216V90.5721H133.632ZM135.918 85.0205V82.6225H138.826C140.184 82.6225 141.212 82.2801 141.907 81.5941C142.603 80.9081 142.952 79.9055 142.952 78.5841C142.952 77.4228 142.604 76.5438 141.907 75.9472C141.212 75.3495 140.184 75.0518 138.826 75.0518H135.968V72.6537H138.826C141.038 72.6537 142.714 73.1538 143.853 74.1551C144.992 75.1565 145.562 76.6332 145.562 78.5841C145.562 80.6963 144.992 82.2965 143.853 83.385C142.714 84.4746 141.038 85.0194 138.826 85.0194H135.918V85.0205Z" fill="#03CAFF"/>
<path d="M153.635 90.5721V72.6537H156.22V90.5721H153.635ZM153.635 75.0518V72.6537H165.317V75.0518H153.635ZM153.635 82.8002V80.4021H163.08V82.8002H153.635ZM153.635 90.5721V88.174H165.317V90.5721H153.635Z" fill="#03CAFF"/>
<path d="M178.497 90.8251C177.495 90.8251 176.556 90.7427 175.682 90.5791C174.809 90.4156 173.998 90.1685 173.253 89.8414L173.577 87.2927C174.487 87.6881 175.368 87.9893 176.218 88.1952C177.067 88.4011 177.893 88.5047 178.697 88.5047C179.857 88.5047 180.718 88.2987 181.282 87.8869C181.845 87.4751 182.127 86.8479 182.127 86.0066C182.127 84.9382 181.588 84.1557 180.511 83.6591L177.454 82.2459C176.252 81.6906 175.331 81.0222 174.689 80.2397C174.047 79.4572 173.726 78.4853 173.726 77.3251C173.726 75.7601 174.19 74.5493 175.118 73.6915C176.046 72.8337 177.359 72.4042 179.057 72.4042C180.241 72.4042 181.29 72.5808 182.201 72.9338C183.112 73.2868 183.99 73.8633 184.835 74.6623L183.096 76.4544C182.367 75.8484 181.685 75.4095 181.052 75.1353C180.418 74.8623 179.757 74.7246 179.07 74.7246C178.217 74.7246 177.555 74.9329 177.088 75.3495C176.62 75.766 176.386 76.3826 176.386 77.198C176.386 77.7781 176.539 78.2511 176.846 78.6171C177.152 78.983 177.604 79.309 178.201 79.5949L180.785 80.8316C182.093 81.454 183.088 82.1565 183.768 82.939C184.447 83.7215 184.787 84.7264 184.787 85.9548C184.787 87.5786 184.266 88.7965 183.227 89.6072C182.187 90.4191 180.611 90.8251 178.498 90.8251H178.497Z" fill="#03CAFF"/>
<path d="M200.95 90.8251C195.465 90.8251 192.723 87.7457 192.723 81.5882C192.723 78.6689 193.415 76.4085 194.798 74.8058C196.182 73.2032 198.133 72.4019 200.652 72.4019C201.87 72.4019 202.93 72.5972 203.833 72.9891C204.736 73.3797 205.394 73.9374 205.809 74.6611L203.97 76.5155C203.597 75.9437 203.123 75.5024 202.547 75.1906C201.971 74.88 201.347 74.7235 200.676 74.7235C199.077 74.7235 197.795 75.3083 196.83 76.4779C195.865 77.6475 195.382 79.309 195.382 81.4623C195.382 86.156 197.379 88.5035 201.373 88.5035C202.575 88.5035 203.759 88.2517 204.927 87.7469L205.498 89.9673C204.057 90.5391 202.541 90.8251 200.95 90.8251Z" fill="#03CAFF"/>
<path d="M212.215 90.5721L217.311 72.6537H220.915L226.011 90.5721H223.401L219.226 74.8247H219.002L214.826 90.5721H212.215ZM214.577 86.2066V83.8086H223.525V86.2066H214.577Z" fill="#03CAFF"/>
<path d="M233.4 90.5721V72.6537H235.986V90.5721H233.4ZM235.811 90.5721V88.174H237.675C239.49 88.174 240.854 87.6481 241.77 86.5973C242.685 85.5453 243.143 83.9686 243.143 81.8659C243.143 79.5867 242.685 77.8805 241.77 76.7497C240.854 75.6189 239.489 75.0529 237.675 75.0529H235.861L235.563 72.6549H237.675C243.061 72.6549 245.753 75.726 245.753 81.8659C245.753 87.6704 243.061 90.5721 237.675 90.5721H235.811Z" fill="#03CAFF"/>
<path d="M259.121 90.8251C254.78 90.8251 252.609 87.7963 252.609 81.74C252.609 75.6836 254.78 72.4031 259.121 72.4031C263.462 72.4031 265.633 75.5154 265.633 81.74C265.633 87.9646 263.462 90.8251 259.121 90.8251ZM259.121 88.5035C261.689 88.5035 262.973 86.249 262.973 81.74C262.973 77.231 261.689 74.7246 259.121 74.7246C256.553 74.7246 255.269 77.0639 255.269 81.74C255.269 86.4161 256.553 88.5035 259.121 88.5035Z" fill="#03CAFF"/>
<path d="M278.515 90.8251C277.513 90.8251 276.574 90.7427 275.7 90.5791C274.826 90.4156 274.016 90.1685 273.271 89.8414L273.594 87.2927C274.505 87.6881 275.386 87.9893 276.235 88.1952C277.085 88.4011 277.911 88.5047 278.714 88.5047C279.874 88.5047 280.735 88.2987 281.3 87.8869C281.863 87.4751 282.145 86.8479 282.145 86.0066C282.145 84.9382 281.606 84.1557 280.529 83.6591L277.472 82.2459C276.27 81.6906 275.349 81.0222 274.707 80.2397C274.065 79.4572 273.744 78.4853 273.744 77.3251C273.744 75.7601 274.207 74.5493 275.136 73.6915C276.064 72.8337 277.377 72.4042 279.075 72.4042C280.259 72.4042 281.308 72.5808 282.219 72.9338C283.13 73.2868 284.008 73.8633 284.853 74.6623L283.114 76.4544C282.385 75.8484 281.703 75.4095 281.069 75.1353C280.435 74.8623 279.775 74.7246 279.087 74.7246C278.235 74.7246 277.573 74.9329 277.106 75.3495C276.638 75.766 276.404 76.3826 276.404 77.198C276.404 77.7781 276.556 78.2511 276.864 78.6171C277.17 78.983 277.621 79.309 278.218 79.5949L280.803 80.8316C282.111 81.454 283.105 82.1565 283.786 82.939C284.465 83.7215 284.804 84.7264 284.804 85.9548C284.804 87.5786 284.284 88.7965 283.245 89.6072C282.205 90.4191 280.629 90.8251 278.516 90.8251H278.515Z" fill="#03CAFF"/>
<path d="M136.754 53.4316V33.0998C134.977 32.9363 134.171 32.1703 133.632 31.6243L134.547 25.5573C135.732 25.7209 137.616 25.8303 138.854 25.8303C142.999 25.8303 144.937 25.2832 149.512 25.2832C158.717 25.2832 164.154 29.3274 164.154 37.4712C164.154 47.527 158.071 51.5712 150.858 51.5712C148.812 51.5712 146.551 51.2983 144.882 50.5322V61.7907H137.561C136.7 60.3151 136.754 58.5113 136.754 53.428V53.4316ZM144.881 43.6487C146.334 44.4688 147.842 44.796 149.619 44.796C154.033 44.796 155.808 42.1732 155.808 38.0736C155.808 33.9741 153.171 32.1161 149.241 32.1161C147.519 32.1161 145.85 32.335 144.881 32.6633V43.6487Z" fill="white"/>
<path d="M165.281 44.3582C165.281 32.0067 172.549 25.1749 183.421 25.1749C194.294 25.1749 200.162 31.4054 200.162 43.1015C200.162 56.2732 193.218 62.6673 181.914 62.6673C171.848 62.6673 165.281 57.0922 165.281 44.3582ZM191.389 43.8123C191.389 36.1604 188.375 32.1714 182.884 32.1714C177.393 32.1714 174.11 36.1062 174.11 43.5393C174.11 50.9723 176.316 55.7273 182.776 55.7273C188.428 55.7273 191.389 52.229 191.389 43.8123Z" fill="white"/>
<path d="M203.499 53.4316V33.0457C201.723 32.9916 200.593 31.8984 200.377 31.5701L201.401 25.5032C202.477 25.5573 204.523 25.7221 206.729 25.7221C209.69 25.7221 212.328 25.2302 216.149 25.2302C224.223 25.2302 229.983 28.4002 229.983 36.7616C229.983 42.0084 227.237 46.1621 222.338 47.5835C225.084 51.4089 228.152 54.1423 231.597 54.1964V60.8093C230.681 61.6294 229.014 62.0119 227.237 62.0119C221.639 62.0119 217.602 56.8204 215.825 49.8792C214.372 49.8792 213.134 49.8792 212.003 49.4968V61.7942H204.359C203.714 60.5916 203.498 58.5148 203.498 53.4316H203.499ZM211.519 42.7733C212.542 43.1557 213.833 43.484 215.987 43.484C219.162 43.484 221.907 42.1178 221.907 37.7453C221.907 34.3024 219.754 32.1702 216.094 32.1702C214.48 32.1702 212.596 32.2797 211.519 32.6621V42.7733Z" fill="white"/>
<path d="M242.094 61.793C241.557 60.9729 241.286 58.9513 241.286 54.1411V33.5364C240.21 33.5364 238.326 33.7552 236.173 33.7552C232.675 33.7552 231.221 33.2634 230.414 32.3338L230.737 25.775H254.745C258.512 25.775 259.805 25.9386 260.828 26.814V33.5364H249.201C249.524 33.7552 250.169 36.8699 250.169 40.4223V61.7918H242.095L242.094 61.793Z" fill="white"/>
<path d="M260.288 44.3582C260.288 32.0067 267.555 25.1749 278.428 25.1749C289.301 25.1749 295.168 31.4054 295.168 43.1015C295.168 56.2732 288.224 62.6673 276.92 62.6673C266.854 62.6673 260.288 57.0922 260.288 44.3582ZM286.394 43.8123C286.394 36.1604 283.38 32.1714 277.889 32.1714C272.398 32.1714 269.115 36.1062 269.115 43.5393C269.115 50.9723 271.322 55.7273 277.781 55.7273C283.433 55.7273 286.394 52.229 286.394 43.8123Z" fill="white"/>
<path d="M306.848 55.2354V33.0457C306.202 33.0457 304.587 32.9363 303.726 31.5701L304.587 25.4491C306.256 25.668 307.709 25.7221 309.431 25.7221C312.606 25.7221 315.783 25.1761 319.819 25.1761C327.086 25.1761 332.792 27.3624 332.792 34.686C332.792 39.2221 331.07 41.3542 327.948 42.6109C332.631 42.7744 335.592 45.6714 335.592 50.3722C335.592 59.4444 328.056 62.7238 319.928 62.7238C315.353 62.7238 309.432 62.3413 306.256 59.6079C306.309 59.4985 306.848 58.1324 306.848 55.2354ZM314.869 46.5445C314.869 49.332 314.815 52.1196 314.815 54.8518C315.731 55.5625 317.991 56.1085 320.198 56.1085C323.697 56.1085 326.927 54.7965 326.927 50.9711C326.927 46.7634 323.859 46.7634 319.391 46.6539C318.098 46.6539 316.161 46.6539 314.869 46.5445ZM314.869 40.8612C316.106 41.1895 318.152 41.2436 319.983 41.2436C323.32 41.2436 324.935 39.3856 324.935 36.7075C324.935 33.2646 322.674 32.062 318.691 32.062C317.076 32.062 316.107 32.1714 314.923 32.5538L314.87 40.8612H314.869Z" fill="white"/>
<path d="M338.552 54.9071V33.3187C336.883 33.1551 335.969 32.335 335.591 32.0067L336.344 25.7762H362.827V32.335C361.535 33.0457 358.305 33.3187 355.83 33.3187C352.439 33.3187 347.971 33.0457 346.356 32.9904V40.7517C347.54 40.314 349.747 39.9869 352.169 39.9869C355.183 39.9869 358.144 40.0963 358.844 40.4787V45.835C357.714 47.0916 354.484 47.2564 351.847 47.2564C349.747 47.2564 347.487 47.0375 346.356 47.0375V54.7436C346.356 54.7436 353.138 53.9787 358.413 53.9787C361.751 53.9787 363.149 54.7436 363.688 55.0165V61.7942H339.627C338.766 60.6469 338.551 58.4607 338.551 54.9083L338.552 54.9071Z" fill="white"/>
<path d="M366.381 55.7814V25.7762H374.078C374.723 26.7058 375.047 28.1813 375.047 31.9526V54.4153C375.047 54.4153 379.622 53.8681 383.768 53.8681C386.458 53.8681 389.096 53.9775 390.388 54.9071V61.793H367.673C366.757 60.481 366.381 58.0771 366.381 55.7814Z" fill="white"/>
<path d="M390.119 44.3582C390.119 32.0067 397.387 25.1749 408.26 25.1749C419.133 25.1749 425 31.4054 425 43.1015C425 56.2732 418.056 62.6673 406.752 62.6673C396.686 62.6673 390.119 57.0922 390.119 44.3582ZM416.226 43.8123C416.226 36.1604 413.212 32.1714 407.721 32.1714C402.23 32.1714 398.947 36.1062 398.947 43.5393C398.947 50.9723 401.153 55.7273 407.613 55.7273C413.265 55.7273 416.226 52.229 416.226 43.8123Z" fill="white"/>
</svg>
